<svg width="19" height="20" viewBox="0 0 19 20" fill="none" xmlns="http://www.w3.org/2000/svg">
<path d="M18.1075 17.4866C17.5148 16.9096 16.9959 16.2482 16.5647 15.5201C16.094 14.5151 15.8119 13.4176 15.735 12.2919V8.97651C15.739 7.20846 15.1517 5.49965 14.0832 4.17112C13.0148 2.8426 11.5389 1.98581 9.93269 1.76174V0.895973C9.93269 0.658346 9.84624 0.430452 9.69235 0.262425C9.53847 0.094397 9.32976 0 9.11213 0C8.89451 0 8.6858 0.094397 8.53192 0.262425C8.37803 0.430452 8.29158 0.658346 8.29158 0.895973V1.77517C6.69981 2.01539 5.24169 2.87735 4.1873 4.20141C3.13291 5.52547 2.55369 7.22191 2.55693 8.97651V12.2919C2.47995 13.4176 2.19784 14.5151 1.72716 15.5201C1.30359 16.2465 0.793014 16.9079 0.20898 17.4866C0.143416 17.5495 0.0908702 17.6269 0.0548372 17.7137C0.0188042 17.8005 0.000110511 17.8946 0 17.9899V18.9027C0 19.0807 0.0647572 19.2514 0.180026 19.3773C0.295294 19.5031 0.451632 19.5738 0.614647 19.5738H17.7018C17.8648 19.5738 18.0212 19.5031 18.1364 19.3773C18.2517 19.2514 18.3165 19.0807 18.3165 18.9027V17.9899C18.3164 17.8946 18.2977 17.8005 18.2616 17.7137C18.2256 17.6269 18.173 17.5495 18.1075 17.4866ZM1.27846 18.2315C1.85034 17.6283 2.35385 16.9524 2.7782 16.2181C3.3711 15.0043 3.71703 13.6651 3.79237 12.2919V8.97651C3.76799 8.18996 3.88882 7.40609 4.14766 6.67159C4.4065 5.93709 4.79806 5.26697 5.29902 4.70114C5.79998 4.13531 6.40009 3.68535 7.06363 3.37804C7.72716 3.07072 8.44055 2.91235 9.16131 2.91235C9.88206 2.91235 10.5954 3.07072 11.259 3.37804C11.9225 3.68535 12.5226 4.13531 13.0236 4.70114C13.5246 5.26697 13.9161 5.93709 14.175 6.67159C14.4338 7.40609 14.5546 8.18996 14.5302 8.97651V12.2919C14.6056 13.6651 14.9515 15.0043 15.5444 16.2181C15.9688 16.9524 16.4723 17.6283 17.0441 18.2315H1.27846Z" fill="#3D4555"/>
</svg>
