<svg width="25" height="25" viewBox="0 0 25 25" fill="none" xmlns="http://www.w3.org/2000/svg">
<path d="M17.4004 3.7998H7.40039C4.40039 3.7998 2.40039 5.2998 2.40039 8.7998V15.7998C2.40039 19.2998 4.40039 20.7998 7.40039 20.7998H17.4004C20.4004 20.7998 22.4004 19.2998 22.4004 15.7998V8.7998C22.4004 5.2998 20.4004 3.7998 17.4004 3.7998ZM17.8704 9.8898L14.7404 12.3898C14.0804 12.9198 13.2404 13.1798 12.4004 13.1798C11.5604 13.1798 10.7104 12.9198 10.0604 12.3898L6.93039 9.8898C6.61039 9.6298 6.56039 9.1498 6.81039 8.8298C7.07039 8.5098 7.54039 8.4498 7.86039 8.7098L10.9904 11.2098C11.7504 11.8198 13.0404 11.8198 13.8004 11.2098L16.9304 8.7098C17.2504 8.4498 17.7304 8.4998 17.9804 8.8298C18.2404 9.1498 18.1904 9.6298 17.8704 9.8898Z" fill="#292D32"/>
</svg>
