<svg width="119" height="52" viewBox="0 0 119 52" fill="none" xmlns="http://www.w3.org/2000/svg">
<path d="M11.064 21.192C11.48 21.192 11.824 21.328 12.096 21.6C12.384 21.856 12.528 22.192 12.528 22.608C12.528 23.008 12.384 23.344 12.096 23.616C11.824 23.872 11.48 24 11.064 24H3.264C2.848 24 2.496 23.864 2.208 23.592C1.936 23.304 1.8 22.952 1.8 22.536V8.664C1.8 8.248 1.944 7.904 2.232 7.632C2.52 7.344 2.888 7.2 3.336 7.2C3.72 7.2 4.056 7.344 4.344 7.632C4.648 7.904 4.8 8.248 4.8 8.664V21.6L4.272 21.192H11.064ZM21.0846 24.24C19.7246 24.24 18.5406 23.96 17.5326 23.4C16.5406 22.824 15.7726 22.048 15.2286 21.072C14.7006 20.096 14.4366 18.992 14.4366 17.76C14.4366 16.32 14.7246 15.096 15.3006 14.088C15.8926 13.064 16.6606 12.28 17.6046 11.736C18.5486 11.192 19.5486 10.92 20.6046 10.92C21.4206 10.92 22.1886 11.088 22.9086 11.424C23.6446 11.76 24.2926 12.224 24.8526 12.816C25.4126 13.392 25.8526 14.064 26.1726 14.832C26.5086 15.6 26.6766 16.416 26.6766 17.28C26.6606 17.664 26.5086 17.976 26.2206 18.216C25.9326 18.456 25.5966 18.576 25.2126 18.576H16.0446L15.3246 16.176H24.1326L23.6046 16.656V16.008C23.5726 15.544 23.4046 15.128 23.1006 14.76C22.8126 14.392 22.4446 14.104 21.9966 13.896C21.5646 13.672 21.1006 13.56 20.6046 13.56C20.1246 13.56 19.6766 13.624 19.2606 13.752C18.8446 13.88 18.4846 14.096 18.1806 14.4C17.8766 14.704 17.6366 15.112 17.4606 15.624C17.2846 16.136 17.1966 16.784 17.1966 17.568C17.1966 18.432 17.3726 19.168 17.7246 19.776C18.0926 20.368 18.5566 20.824 19.1166 21.144C19.6926 21.448 20.3006 21.6 20.9406 21.6C21.5326 21.6 22.0046 21.552 22.3566 21.456C22.7086 21.36 22.9886 21.248 23.1966 21.12C23.4206 20.976 23.6206 20.856 23.7966 20.76C24.0846 20.616 24.3566 20.544 24.6126 20.544C24.9646 20.544 25.2526 20.664 25.4766 20.904C25.7166 21.144 25.8366 21.424 25.8366 21.744C25.8366 22.176 25.6126 22.568 25.1646 22.92C24.7486 23.272 24.1646 23.584 23.4126 23.856C22.6606 24.112 21.8846 24.24 21.0846 24.24ZM39.7986 10.92C40.2146 10.92 40.5586 11.056 40.8306 11.328C41.1026 11.6 41.2386 11.952 41.2386 12.384V22.536C41.2386 22.952 41.1026 23.304 40.8306 23.592C40.5586 23.864 40.2146 24 39.7986 24C39.3826 24 39.0386 23.864 38.7666 23.592C38.4946 23.304 38.3586 22.952 38.3586 22.536V21.36L38.8866 21.576C38.8866 21.784 38.7746 22.04 38.5506 22.344C38.3266 22.632 38.0226 22.92 37.6386 23.208C37.2546 23.496 36.7986 23.744 36.2706 23.952C35.7586 24.144 35.1986 24.24 34.5906 24.24C33.4866 24.24 32.4866 23.96 31.5906 23.4C30.6946 22.824 29.9826 22.04 29.4546 21.048C28.9426 20.04 28.6866 18.888 28.6866 17.592C28.6866 16.28 28.9426 15.128 29.4546 14.136C29.9826 13.128 30.6866 12.344 31.5666 11.784C32.4466 11.208 33.4226 10.92 34.4946 10.92C35.1826 10.92 35.8146 11.024 36.3906 11.232C36.9666 11.44 37.4626 11.704 37.8786 12.024C38.3106 12.344 38.6386 12.672 38.8626 13.008C39.1026 13.328 39.2226 13.6 39.2226 13.824L38.3586 14.136V12.384C38.3586 11.968 38.4946 11.624 38.7666 11.352C39.0386 11.064 39.3826 10.92 39.7986 10.92ZM34.9506 21.6C35.6546 21.6 36.2706 21.424 36.7986 21.072C37.3266 20.72 37.7346 20.24 38.0226 19.632C38.3266 19.024 38.4786 18.344 38.4786 17.592C38.4786 16.824 38.3266 16.136 38.0226 15.528C37.7346 14.92 37.3266 14.44 36.7986 14.088C36.2706 13.736 35.6546 13.56 34.9506 13.56C34.2626 13.56 33.6546 13.736 33.1266 14.088C32.5986 14.44 32.1826 14.92 31.8786 15.528C31.5906 16.136 31.4466 16.824 31.4466 17.592C31.4466 18.344 31.5906 19.024 31.8786 19.632C32.1826 20.24 32.5986 20.72 33.1266 21.072C33.6546 21.424 34.2626 21.6 34.9506 21.6ZM45.7969 24C45.3809 24 45.0369 23.864 44.7649 23.592C44.4929 23.304 44.3569 22.952 44.3569 22.536V12.624C44.3569 12.208 44.4929 11.864 44.7649 11.592C45.0369 11.304 45.3809 11.16 45.7969 11.16C46.2129 11.16 46.5569 11.304 46.8289 11.592C47.1009 11.864 47.2369 12.208 47.2369 12.624V14.88L47.0689 13.272C47.2449 12.888 47.4689 12.552 47.7409 12.264C48.0289 11.96 48.3489 11.712 48.7009 11.52C49.0529 11.312 49.4289 11.16 49.8289 11.064C50.2289 10.968 50.6289 10.92 51.0289 10.92C51.5089 10.92 51.9089 11.056 52.2289 11.328C52.5649 11.6 52.7329 11.92 52.7329 12.288C52.7329 12.816 52.5969 13.2 52.3249 13.44C52.0529 13.664 51.7569 13.776 51.4369 13.776C51.1329 13.776 50.8529 13.72 50.5969 13.608C50.3569 13.496 50.0769 13.44 49.7569 13.44C49.4689 13.44 49.1729 13.512 48.8689 13.656C48.5809 13.784 48.3089 13.992 48.0529 14.28C47.8129 14.568 47.6129 14.928 47.4529 15.36C47.3089 15.776 47.2369 16.272 47.2369 16.848V22.536C47.2369 22.952 47.1009 23.304 46.8289 23.592C46.5569 23.864 46.2129 24 45.7969 24ZM61.6271 10.92C62.8111 10.92 63.7071 11.168 64.3151 11.664C64.9391 12.16 65.3631 12.824 65.5871 13.656C65.8271 14.472 65.9471 15.384 65.9471 16.392V22.536C65.9471 22.952 65.8111 23.304 65.5391 23.592C65.2671 23.864 64.9231 24 64.5071 24C64.0911 24 63.7471 23.864 63.4751 23.592C63.2031 23.304 63.0671 22.952 63.0671 22.536V16.392C63.0671 15.864 62.9951 15.392 62.8511 14.976C62.7231 14.544 62.4831 14.2 62.1311 13.944C61.7791 13.688 61.2751 13.56 60.6191 13.56C59.9791 13.56 59.4351 13.688 58.9871 13.944C58.5551 14.2 58.2191 14.544 57.9791 14.976C57.7551 15.392 57.6431 15.864 57.6431 16.392V22.536C57.6431 22.952 57.5071 23.304 57.2351 23.592C56.9631 23.864 56.6191 24 56.2031 24C55.7871 24 55.4431 23.864 55.1711 23.592C54.8991 23.304 54.7631 22.952 54.7631 22.536V12.624C54.7631 12.208 54.8991 11.864 55.1711 11.592C55.4431 11.304 55.7871 11.16 56.2031 11.16C56.6191 11.16 56.9631 11.304 57.2351 11.592C57.5071 11.864 57.6431 12.208 57.6431 12.624V13.656L57.2831 13.584C57.4271 13.312 57.6351 13.024 57.9071 12.72C58.1791 12.4 58.4991 12.104 58.8671 11.832C59.2351 11.56 59.6511 11.344 60.1151 11.184C60.5791 11.008 61.0831 10.92 61.6271 10.92ZM79.572 10.92C79.988 10.92 80.332 11.056 80.604 11.328C80.876 11.6 81.012 11.952 81.012 12.384V22.536C81.012 22.952 80.876 23.304 80.604 23.592C80.332 23.864 79.988 24 79.572 24C79.156 24 78.812 23.864 78.54 23.592C78.268 23.304 78.132 22.952 78.132 22.536V21.36L78.66 21.576C78.66 21.784 78.548 22.04 78.324 22.344C78.1 22.632 77.796 22.92 77.412 23.208C77.028 23.496 76.572 23.744 76.044 23.952C75.532 24.144 74.972 24.24 74.364 24.24C73.26 24.24 72.26 23.96 71.364 23.4C70.468 22.824 69.756 22.04 69.228 21.048C68.716 20.04 68.46 18.888 68.46 17.592C68.46 16.28 68.716 15.128 69.228 14.136C69.756 13.128 70.46 12.344 71.34 11.784C72.22 11.208 73.196 10.92 74.268 10.92C74.956 10.92 75.588 11.024 76.164 11.232C76.74 11.44 77.236 11.704 77.652 12.024C78.084 12.344 78.412 12.672 78.636 13.008C78.876 13.328 78.996 13.6 78.996 13.824L78.132 14.136V12.384C78.132 11.968 78.268 11.624 78.54 11.352C78.812 11.064 79.156 10.92 79.572 10.92ZM74.724 21.6C75.428 21.6 76.044 21.424 76.572 21.072C77.1 20.72 77.508 20.24 77.796 19.632C78.1 19.024 78.252 18.344 78.252 17.592C78.252 16.824 78.1 16.136 77.796 15.528C77.508 14.92 77.1 14.44 76.572 14.088C76.044 13.736 75.428 13.56 74.724 13.56C74.036 13.56 73.428 13.736 72.9 14.088C72.372 14.44 71.956 14.92 71.652 15.528C71.364 16.136 71.22 16.824 71.22 17.592C71.22 18.344 71.364 19.024 71.652 19.632C71.956 20.24 72.372 20.72 72.9 21.072C73.428 21.424 74.036 21.6 74.724 21.6ZM90.7783 10.92C91.8983 10.92 92.8983 11.208 93.7783 11.784C94.6743 12.344 95.3783 13.12 95.8903 14.112C96.4183 15.104 96.6823 16.256 96.6823 17.568C96.6823 18.88 96.4183 20.04 95.8903 21.048C95.3783 22.04 94.6823 22.824 93.8023 23.4C92.9383 23.96 91.9623 24.24 90.8743 24.24C90.2343 24.24 89.6343 24.136 89.0743 23.928C88.5143 23.72 88.0183 23.456 87.5863 23.136C87.1703 22.816 86.8423 22.496 86.6023 22.176C86.3783 21.84 86.2663 21.56 86.2663 21.336L87.0103 21.024V22.776C87.0103 23.192 86.8743 23.544 86.6023 23.832C86.3303 24.104 85.9863 24.24 85.5703 24.24C85.1543 24.24 84.8103 24.104 84.5383 23.832C84.2663 23.56 84.1303 23.208 84.1303 22.776V7.704C84.1303 7.288 84.2663 6.944 84.5383 6.672C84.8103 6.384 85.1543 6.24 85.5703 6.24C85.9863 6.24 86.3303 6.384 86.6023 6.672C86.8743 6.944 87.0103 7.288 87.0103 7.704V13.8L86.6023 13.584C86.6023 13.376 86.7143 13.128 86.9383 12.84C87.1623 12.536 87.4663 12.24 87.8503 11.952C88.2343 11.648 88.6743 11.4 89.1703 11.208C89.6823 11.016 90.2183 10.92 90.7783 10.92ZM90.4183 13.56C89.7143 13.56 89.0983 13.736 88.5703 14.088C88.0423 14.44 87.6263 14.92 87.3223 15.528C87.0343 16.12 86.8903 16.8 86.8903 17.568C86.8903 18.32 87.0343 19.008 87.3223 19.632C87.6263 20.24 88.0423 20.72 88.5703 21.072C89.0983 21.424 89.7143 21.6 90.4183 21.6C91.1223 21.6 91.7303 21.424 92.2423 21.072C92.7703 20.72 93.1783 20.24 93.4663 19.632C93.7703 19.008 93.9223 18.32 93.9223 17.568C93.9223 16.8 93.7703 16.12 93.4663 15.528C93.1783 14.92 92.7703 14.44 92.2423 14.088C91.7303 13.736 91.1223 13.56 90.4183 13.56ZM102.321 22.536C102.321 22.952 102.177 23.304 101.889 23.592C101.617 23.864 101.273 24 100.857 24C100.457 24 100.121 23.864 99.8486 23.592C99.5766 23.304 99.4406 22.952 99.4406 22.536V7.704C99.4406 7.288 99.5766 6.944 99.8486 6.672C100.137 6.384 100.489 6.24 100.905 6.24C101.321 6.24 101.657 6.384 101.913 6.672C102.185 6.944 102.321 7.288 102.321 7.704V22.536ZM111.483 24.24C110.123 24.24 108.939 23.96 107.931 23.4C106.939 22.824 106.171 22.048 105.627 21.072C105.099 20.096 104.835 18.992 104.835 17.76C104.835 16.32 105.123 15.096 105.699 14.088C106.291 13.064 107.059 12.28 108.003 11.736C108.947 11.192 109.947 10.92 111.003 10.92C111.819 10.92 112.587 11.088 113.307 11.424C114.043 11.76 114.691 12.224 115.251 12.816C115.811 13.392 116.251 14.064 116.571 14.832C116.907 15.6 117.075 16.416 117.075 17.28C117.059 17.664 116.907 17.976 116.619 18.216C116.331 18.456 115.995 18.576 115.611 18.576H106.443L105.723 16.176H114.531L114.003 16.656V16.008C113.971 15.544 113.803 15.128 113.499 14.76C113.211 14.392 112.843 14.104 112.395 13.896C111.963 13.672 111.499 13.56 111.003 13.56C110.523 13.56 110.075 13.624 109.659 13.752C109.243 13.88 108.883 14.096 108.579 14.4C108.275 14.704 108.035 15.112 107.859 15.624C107.683 16.136 107.595 16.784 107.595 17.568C107.595 18.432 107.771 19.168 108.123 19.776C108.491 20.368 108.955 20.824 109.515 21.144C110.091 21.448 110.699 21.6 111.339 21.6C111.931 21.6 112.403 21.552 112.755 21.456C113.107 21.36 113.387 21.248 113.595 21.12C113.819 20.976 114.019 20.856 114.195 20.76C114.483 20.616 114.755 20.544 115.011 20.544C115.363 20.544 115.651 20.664 115.875 20.904C116.115 21.144 116.235 21.424 116.235 21.744C116.235 22.176 116.011 22.568 115.563 22.92C115.147 23.272 114.563 23.584 113.811 23.856C113.059 24.112 112.283 24.24 111.483 24.24Z" fill="#130E5D"/>
<path d="M72.368 46C71.92 46 71.56 45.816 71.288 45.448L65.744 38.152L67.928 35.92L73.664 43.504C73.888 43.808 74 44.136 74 44.488C74 44.936 73.832 45.304 73.496 45.592C73.16 45.864 72.784 46 72.368 46ZM72.656 29.08C73.04 29.08 73.352 29.24 73.592 29.56C73.848 29.864 73.976 30.176 73.976 30.496C73.976 30.832 73.832 31.144 73.544 31.432L63.488 41.056L63.368 37.624L71.48 29.632C71.848 29.264 72.24 29.08 72.656 29.08ZM62.288 46C61.84 46 61.48 45.864 61.208 45.592C60.936 45.304 60.8 44.952 60.8 44.536V30.664C60.8 30.248 60.944 29.904 61.232 29.632C61.52 29.344 61.888 29.2 62.336 29.2C62.784 29.2 63.136 29.344 63.392 29.632C63.664 29.904 63.8 30.248 63.8 30.664V44.536C63.8 44.952 63.664 45.304 63.392 45.592C63.12 45.864 62.752 46 62.288 46ZM78.9986 44.536C78.9986 44.952 78.8626 45.304 78.5906 45.592C78.3186 45.864 77.9746 46 77.5586 46C77.1426 46 76.7986 45.864 76.5266 45.592C76.2546 45.304 76.1186 44.952 76.1186 44.536V34.624C76.1186 34.208 76.2546 33.864 76.5266 33.592C76.7986 33.304 77.1426 33.16 77.5586 33.16C77.9746 33.16 78.3186 33.304 78.5906 33.592C78.8626 33.864 78.9986 34.208 78.9986 34.624V44.536ZM77.5346 31.6C76.9906 31.6 76.6066 31.512 76.3826 31.336C76.1586 31.16 76.0466 30.848 76.0466 30.4V29.944C76.0466 29.48 76.1666 29.168 76.4066 29.008C76.6626 28.832 77.0466 28.744 77.5586 28.744C78.1186 28.744 78.5106 28.832 78.7346 29.008C78.9586 29.184 79.0706 29.496 79.0706 29.944V30.4C79.0706 30.864 78.9506 31.184 78.7106 31.36C78.4706 31.52 78.0786 31.6 77.5346 31.6ZM92.4704 28.24C92.8864 28.24 93.2304 28.376 93.5024 28.648C93.7744 28.92 93.9104 29.272 93.9104 29.704V44.536C93.9104 44.952 93.7744 45.304 93.5024 45.592C93.2304 45.864 92.8864 46 92.4704 46C92.0544 46 91.7104 45.864 91.4384 45.592C91.1664 45.304 91.0304 44.952 91.0304 44.536V43.36L91.5584 43.576C91.5584 43.784 91.4464 44.04 91.2224 44.344C90.9984 44.632 90.6944 44.92 90.3104 45.208C89.9264 45.496 89.4704 45.744 88.9424 45.952C88.4304 46.144 87.8704 46.24 87.2624 46.24C86.1584 46.24 85.1584 45.96 84.2624 45.4C83.3664 44.824 82.6544 44.04 82.1264 43.048C81.6144 42.04 81.3584 40.888 81.3584 39.592C81.3584 38.28 81.6144 37.128 82.1264 36.136C82.6544 35.128 83.3584 34.344 84.2384 33.784C85.1184 33.208 86.0944 32.92 87.1664 32.92C87.8544 32.92 88.4864 33.024 89.0624 33.232C89.6384 33.44 90.1344 33.704 90.5504 34.024C90.9824 34.344 91.3104 34.672 91.5344 35.008C91.7744 35.328 91.8944 35.6 91.8944 35.824L91.0304 36.136V29.704C91.0304 29.288 91.1664 28.944 91.4384 28.672C91.7104 28.384 92.0544 28.24 92.4704 28.24ZM87.6224 43.6C88.3264 43.6 88.9424 43.424 89.4704 43.072C89.9984 42.72 90.4064 42.24 90.6944 41.632C90.9984 41.024 91.1504 40.344 91.1504 39.592C91.1504 38.824 90.9984 38.136 90.6944 37.528C90.4064 36.92 89.9984 36.44 89.4704 36.088C88.9424 35.736 88.3264 35.56 87.6224 35.56C86.9344 35.56 86.3264 35.736 85.7984 36.088C85.2704 36.44 84.8544 36.92 84.5504 37.528C84.2624 38.136 84.1184 38.824 84.1184 39.592C84.1184 40.344 84.2624 41.024 84.5504 41.632C84.8544 42.24 85.2704 42.72 85.7984 43.072C86.3264 43.424 86.9344 43.6 87.6224 43.6ZM96.2848 44.008C96.1248 43.784 96.0528 43.496 96.0688 43.144C96.0848 42.792 96.2928 42.488 96.6928 42.232C96.9488 42.072 97.2208 42.008 97.5088 42.04C97.7968 42.056 98.0768 42.2 98.3488 42.472C98.8128 42.936 99.3008 43.296 99.8128 43.552C100.325 43.808 100.965 43.936 101.733 43.936C101.973 43.92 102.237 43.888 102.525 43.84C102.813 43.776 103.061 43.648 103.269 43.456C103.493 43.248 103.605 42.936 103.605 42.52C103.605 42.168 103.485 41.888 103.245 41.68C103.005 41.472 102.685 41.296 102.285 41.152C101.901 41.008 101.469 40.872 100.989 40.744C100.493 40.6 99.9808 40.44 99.4528 40.264C98.9408 40.088 98.4688 39.864 98.0368 39.592C97.6048 39.304 97.2528 38.928 96.9808 38.464C96.7088 38 96.5728 37.416 96.5728 36.712C96.5728 35.912 96.7968 35.232 97.2448 34.672C97.6928 34.112 98.2688 33.68 98.9728 33.376C99.6928 33.072 100.445 32.92 101.229 32.92C101.725 32.92 102.245 32.984 102.789 33.112C103.333 33.224 103.853 33.416 104.349 33.688C104.845 33.944 105.261 34.288 105.597 34.72C105.773 34.96 105.877 35.248 105.909 35.584C105.941 35.92 105.789 36.224 105.453 36.496C105.213 36.688 104.933 36.776 104.613 36.76C104.293 36.728 104.029 36.616 103.821 36.424C103.549 36.072 103.181 35.792 102.717 35.584C102.269 35.376 101.749 35.272 101.157 35.272C100.917 35.272 100.653 35.304 100.365 35.368C100.093 35.416 99.8528 35.536 99.6448 35.728C99.4368 35.904 99.3328 36.192 99.3328 36.592C99.3328 36.96 99.4528 37.256 99.6928 37.48C99.9328 37.688 100.253 37.864 100.653 38.008C101.069 38.136 101.509 38.264 101.973 38.392C102.453 38.52 102.941 38.672 103.437 38.848C103.933 39.024 104.389 39.256 104.805 39.544C105.221 39.832 105.557 40.208 105.813 40.672C106.069 41.12 106.197 41.696 106.197 42.4C106.197 43.216 105.957 43.912 105.477 44.488C104.997 45.064 104.397 45.504 103.677 45.808C102.957 46.096 102.221 46.24 101.469 46.24C100.525 46.24 99.5808 46.08 98.6367 45.76C97.6928 45.424 96.9088 44.84 96.2848 44.008Z" fill="#130E5D"/>
<rect y="32" width="56" height="9" rx="4.5" fill="#FF6A00"/>
</svg>
