<svg width="25" height="25" viewBox="0 0 25 25" fill="none" xmlns="http://www.w3.org/2000/svg">
<path d="M11.6504 6.95027V20.8603C11.6504 21.5703 10.9304 22.0603 10.2804 21.7903C8.42039 21.0103 6.11039 20.3303 4.47039 20.1103L4.16039 20.0703C3.19039 19.9503 2.40039 19.0603 2.40039 18.0903V6.20027C2.40039 5.00027 3.37039 4.03027 4.57039 4.03027H4.64039C6.52039 4.19027 9.29039 5.07027 11.1204 6.06027C11.4504 6.24027 11.6504 6.57027 11.6504 6.95027Z" fill="#292D32"/>
<path d="M20.2304 4.03027H20.1704C19.9304 4.05027 19.6704 4.08027 19.4004 4.13027C18.1704 4.33027 16.7104 4.75027 15.4004 5.27027C14.7804 5.52027 14.2004 5.79027 13.6904 6.06027C13.3604 6.24027 13.1504 6.58027 13.1504 6.95027V20.8603C13.1504 21.5703 13.8704 22.0603 14.5204 21.7903C16.3804 21.0103 18.6904 20.3303 20.3304 20.1103L20.6404 20.0703C21.6104 19.9503 22.4004 19.0603 22.4004 18.0903V6.20027C22.4004 5.00027 21.4304 4.03027 20.2304 4.03027ZM19.6704 14.6803C19.6704 15.0703 19.3904 15.2403 19.0504 15.0503L17.9904 14.4603C17.8804 14.4003 17.7004 14.4003 17.5804 14.4603L16.5204 15.0503C16.1804 15.2403 15.9004 15.0703 15.9004 14.6803V11.6103C15.9004 11.1503 16.2804 10.7703 16.7404 10.7703H18.8404C19.3004 10.7703 19.6804 11.1503 19.6804 11.6103V14.6803H19.6704Z" fill="#292D32"/>
</svg>
