<svg width="25" height="25" viewBox="0 0 25 25" fill="none" xmlns="http://www.w3.org/2000/svg">
<path d="M17.2004 2.2002H14.6004C11.4004 2.2002 9.40039 4.2002 9.40039 7.4002V11.4502H15.6504C16.0604 11.4502 16.4004 11.7902 16.4004 12.2002C16.4004 12.6102 16.0604 12.9502 15.6504 12.9502H9.40039V17.0002C9.40039 20.2002 11.4004 22.2002 14.6004 22.2002H17.1904C20.3904 22.2002 22.3904 20.2002 22.3904 17.0002V7.4002C22.4004 4.2002 20.4004 2.2002 17.2004 2.2002Z" fill="#292D32"/>
<path d="M4.96082 11.45L7.03082 9.38004C7.18082 9.23004 7.25082 9.04004 7.25082 8.85004C7.25082 8.66004 7.18082 8.46004 7.03082 8.32004C6.74082 8.03004 6.26082 8.03004 5.97082 8.32004L2.62082 11.67C2.33082 11.96 2.33082 12.44 2.62082 12.73L5.97082 16.08C6.26082 16.37 6.74082 16.37 7.03082 16.08C7.32082 15.79 7.32082 15.31 7.03082 15.02L4.96082 12.95H9.40082V11.45H4.96082Z" fill="#292D32"/>
</svg>
