<svg width="25" height="25" viewBox="0 0 25 25" fill="none" xmlns="http://www.w3.org/2000/svg">
<path fill-rule="evenodd" clip-rule="evenodd" d="M2.97182 0.400391C2.28983 0.400391 1.63578 0.671308 1.15354 1.15354C0.671308 1.63578 0.400391 2.28983 0.400391 2.97182L0.400391 13.2575C0.400391 13.9395 0.671308 14.5936 1.15354 15.0758C1.63578 15.558 2.28983 15.829 2.97182 15.829H21.829C22.5109 15.829 23.165 15.558 23.6472 15.0758C24.1295 14.5936 24.4004 13.9395 24.4004 13.2575V2.97182C24.4004 2.28983 24.1295 1.63578 23.6472 1.15354C23.165 0.671308 22.5109 0.400391 21.829 0.400391L2.97182 0.400391ZM13.4718 2.89296C13.4718 2.6088 13.3589 2.33628 13.158 2.13535C12.9571 1.93442 12.6846 1.82153 12.4004 1.82153C12.1162 1.82153 11.8437 1.93442 11.6428 2.13535C11.4418 2.33628 11.329 2.6088 11.329 2.89296V3.57868C10.712 3.65097 10.1407 3.93959 9.71641 4.39328C9.29213 4.84697 9.0424 5.43635 9.01157 6.05675C8.98073 6.67714 9.17079 7.28838 9.54798 7.7819C9.92518 8.27543 10.4651 8.61928 11.0718 8.75239L13.1238 9.19982C13.289 9.23116 13.4363 9.32361 13.5364 9.45873C13.6365 9.59386 13.682 9.76173 13.6638 9.9289C13.6457 10.0961 13.5652 10.2502 13.4384 10.3607C13.3116 10.4712 13.1479 10.5298 12.9798 10.525H11.821C11.6823 10.5254 11.547 10.4828 11.4336 10.4029C11.3203 10.3231 11.2346 10.21 11.1884 10.0792C11.0871 9.82043 10.8892 9.6111 10.6365 9.49545C10.3837 9.37981 10.096 9.36689 9.83388 9.45944C9.57181 9.55199 9.35595 9.74276 9.23189 9.99147C9.10782 10.2402 9.08526 10.5274 9.16896 10.7924C9.50153 11.7352 10.3227 12.4467 11.329 12.625V13.3364C11.329 13.6206 11.4418 13.8931 11.6428 14.094C11.8437 14.2949 12.1162 14.4078 12.4004 14.4078C12.6846 14.4078 12.9571 14.2949 13.158 14.094C13.3589 13.8931 13.4718 13.6206 13.4718 13.3364V12.6232C14.1132 12.5096 14.6953 12.1769 15.1187 11.6819C15.5421 11.187 15.7806 10.5604 15.7936 9.90918C15.8065 9.25794 15.5931 8.62239 15.1897 8.11099C14.7863 7.59958 14.2179 7.24401 13.5815 7.10496L11.5295 6.65753C11.4126 6.63299 11.309 6.56587 11.2387 6.46919C11.1685 6.37252 11.1367 6.2532 11.1495 6.13441C11.1624 6.01561 11.2189 5.90582 11.3081 5.82635C11.3973 5.74689 11.5129 5.70342 11.6324 5.70439H12.9798C13.1186 5.70342 13.2542 5.74587 13.3676 5.82579C13.481 5.90571 13.5666 6.01911 13.6124 6.1501C13.6557 6.28716 13.7261 6.41411 13.8195 6.52339C13.9128 6.63267 14.0272 6.72205 14.1558 6.7862C14.2844 6.85036 14.4246 6.88798 14.5681 6.89684C14.7116 6.90569 14.8553 6.88558 14.9909 6.83772C15.1264 6.78986 15.2509 6.71523 15.357 6.61825C15.4631 6.52128 15.5485 6.40395 15.6084 6.27325C15.6682 6.14256 15.7011 6.00117 15.7051 5.85749C15.7091 5.71382 15.6842 5.57081 15.6318 5.43696C15.4662 4.96766 15.179 4.55073 14.7995 4.22876C14.42 3.9068 13.9618 3.69134 13.4718 3.60439V2.89296ZM5.11468 6.82896C5.45567 6.82896 5.7827 6.96442 6.02381 7.20554C6.26493 7.44666 6.40039 7.77368 6.40039 8.11468C6.40039 8.45567 6.26493 8.7827 6.02381 9.02381C5.7827 9.26493 5.45567 9.40039 5.11468 9.40039C4.77368 9.40039 4.44666 9.26493 4.20554 9.02381C3.96442 8.7827 3.82896 8.45567 3.82896 8.11468C3.82896 7.77368 3.96442 7.44666 4.20554 7.20554C4.44666 6.96442 4.77368 6.82896 5.11468 6.82896ZM19.6861 6.82896C20.0271 6.82896 20.3541 6.96442 20.5952 7.20554C20.8364 7.44666 20.9718 7.77368 20.9718 8.11468C20.9718 8.45567 20.8364 8.7827 20.5952 9.02381C20.3541 9.26493 20.0271 9.40039 19.6861 9.40039C19.3451 9.40039 19.0181 9.26493 18.777 9.02381C18.5359 8.7827 18.4004 8.45567 18.4004 8.11468C18.4004 7.77368 18.5359 7.44666 18.777 7.20554C19.0181 6.96442 19.3451 6.82896 19.6861 6.82896ZM8.11468 17.329C8.70611 17.329 9.1861 17.809 9.1861 18.4004V21.829C9.1861 22.1131 9.07322 22.3856 8.87229 22.5866C8.67136 22.7875 8.39884 22.9004 8.11468 22.9004C7.83052 22.9004 7.55799 22.7875 7.35706 22.5866C7.15613 22.3856 7.04325 22.1131 7.04325 21.829V18.4004C7.04325 17.809 7.52325 17.329 8.11468 17.329ZM17.7575 18.4004C17.7575 18.2597 17.7298 18.1204 17.676 17.9904C17.6221 17.8604 17.5432 17.7423 17.4437 17.6428C17.3442 17.5433 17.2261 17.4644 17.0961 17.4105C16.9661 17.3567 16.8268 17.329 16.6861 17.329C16.5454 17.329 16.4061 17.3567 16.2761 17.4105C16.1461 17.4644 16.028 17.5433 15.9285 17.6428C15.829 17.7423 15.7501 17.8604 15.6962 17.9904C15.6424 18.1204 15.6147 18.2597 15.6147 18.4004V21.829C15.6147 21.9697 15.6424 22.109 15.6962 22.239C15.7501 22.369 15.829 22.4871 15.9285 22.5866C16.028 22.6861 16.1461 22.765 16.2761 22.8188C16.4061 22.8727 16.5454 22.9004 16.6861 22.9004C16.8268 22.9004 16.9661 22.8727 17.0961 22.8188C17.2261 22.765 17.3442 22.6861 17.4437 22.5866C17.5432 22.4871 17.6221 22.369 17.676 22.239C17.7298 22.109 17.7575 21.9697 17.7575 21.829V18.4004ZM13.4718 19.6861C13.4718 19.4019 13.3589 19.1294 13.158 18.9285C12.9571 18.7276 12.6846 18.6147 12.4004 18.6147C12.1162 18.6147 11.8437 18.7276 11.6428 18.9285C11.4418 19.1294 11.329 19.4019 11.329 19.6861V23.1147C11.329 23.3988 11.4418 23.6714 11.6428 23.8723C11.8437 24.0732 12.1162 24.1861 12.4004 24.1861C12.6846 24.1861 12.9571 24.0732 13.158 23.8723C13.3589 23.6714 13.4718 23.3988 13.4718 23.1147V19.6861Z" fill="#292D32"/>
</svg>
