<svg width="25" height="25" viewBox="0 0 25 25" fill="none" xmlns="http://www.w3.org/2000/svg">
<path d="M20.5004 9.72043C18.6904 9.72043 17.9504 8.44042 18.8504 6.87042C19.3704 5.96042 19.0604 4.80042 18.1504 4.28042L16.4204 3.29042C15.6304 2.82042 14.6104 3.10042 14.1404 3.89042L14.0304 4.08042C13.1304 5.65042 11.6504 5.65042 10.7404 4.08042L10.6304 3.89042C10.1804 3.10042 9.16039 2.82042 8.37039 3.29042L6.64039 4.28042C5.73039 4.80042 5.42039 5.97042 5.94039 6.88042C6.85039 8.44042 6.11039 9.72043 4.30039 9.72043C3.26039 9.72043 2.40039 10.5704 2.40039 11.6204V13.3804C2.40039 14.4204 3.25039 15.2804 4.30039 15.2804C6.11039 15.2804 6.85039 16.5604 5.94039 18.1304C5.42039 19.0404 5.73039 20.2004 6.64039 20.7204L8.37039 21.7104C9.16039 22.1804 10.1804 21.9004 10.6504 21.1104L10.7604 20.9204C11.6604 19.3504 13.1404 19.3504 14.0504 20.9204L14.1604 21.1104C14.6304 21.9004 15.6504 22.1804 16.4404 21.7104L18.1704 20.7204C19.0804 20.2004 19.3904 19.0304 18.8704 18.1304C17.9604 16.5604 18.7004 15.2804 20.5104 15.2804C21.5504 15.2804 22.4104 14.4304 22.4104 13.3804V11.6204C22.4004 10.5804 21.5504 9.72043 20.5004 9.72043ZM12.4004 15.7504C10.6104 15.7504 9.15039 14.2904 9.15039 12.5004C9.15039 10.7104 10.6104 9.25042 12.4004 9.25042C14.1904 9.25042 15.6504 10.7104 15.6504 12.5004C15.6504 14.2904 14.1904 15.7504 12.4004 15.7504Z" fill="#292D32"/>
</svg>
