<svg width="107" height="50" viewBox="0 0 107 50" fill="none" xmlns="http://www.w3.org/2000/svg">
<path d="M12.4922 19.2577V21.9999H3.90234V19.2577H12.4922ZM5.03906 4.93738V21.9999H1.52344V4.93738H5.03906ZM20.1328 22.2343C19.1484 22.2343 18.2656 22.078 17.4844 21.7655C16.7031 21.4452 16.0391 21.0038 15.4922 20.4413C14.9531 19.8788 14.5391 19.2264 14.25 18.4843C13.9609 17.7343 13.8164 16.9374 13.8164 16.0936V15.6249C13.8164 14.6639 13.9531 13.785 14.2266 12.9882C14.5 12.1913 14.8906 11.4999 15.3984 10.9139C15.9141 10.328 16.5391 9.87878 17.2734 9.56628C18.0078 9.24597 18.8359 9.08582 19.7578 9.08582C20.6562 9.08582 21.4531 9.23425 22.1484 9.53113C22.8438 9.828 23.4258 10.2499 23.8945 10.7968C24.3711 11.3436 24.7305 11.9999 24.9727 12.7655C25.2148 13.5233 25.3359 14.3671 25.3359 15.2968V16.703H15.2578V14.453H22.0195V14.1952C22.0195 13.7264 21.9336 13.3085 21.7617 12.9413C21.5977 12.5663 21.3477 12.2694 21.0117 12.0507C20.6758 11.8319 20.2461 11.7225 19.7227 11.7225C19.2773 11.7225 18.8945 11.8202 18.5742 12.0155C18.2539 12.2108 17.9922 12.4843 17.7891 12.8358C17.5938 13.1874 17.4453 13.6014 17.3438 14.078C17.25 14.5468 17.2031 15.0624 17.2031 15.6249V16.0936C17.2031 16.6014 17.2734 17.0702 17.4141 17.4999C17.5625 17.9296 17.7695 18.3007 18.0352 18.6132C18.3086 18.9257 18.6367 19.1678 19.0195 19.3397C19.4102 19.5116 19.8516 19.5975 20.3438 19.5975C20.9531 19.5975 21.5195 19.4803 22.043 19.246C22.5742 19.0038 23.0312 18.6405 23.4141 18.1561L25.0547 19.9374C24.7891 20.3202 24.4258 20.6874 23.9648 21.0389C23.5117 21.3905 22.9648 21.6796 22.3242 21.9061C21.6836 22.1249 20.9531 22.2343 20.1328 22.2343ZM34.1016 19.1405V13.4921C34.1016 13.0858 34.0352 12.7382 33.9023 12.4491C33.7695 12.1522 33.5625 11.9218 33.2812 11.7577C33.0078 11.5936 32.6523 11.5116 32.2148 11.5116C31.8398 11.5116 31.5156 11.578 31.2422 11.7108C30.9688 11.8358 30.7578 12.0194 30.6094 12.2616C30.4609 12.496 30.3867 12.7733 30.3867 13.0936H27.0117C27.0117 12.5546 27.1367 12.0428 27.3867 11.5585C27.6367 11.0741 28 10.6483 28.4766 10.2811C28.9531 9.90613 29.5195 9.61316 30.1758 9.40222C30.8398 9.19128 31.582 9.08582 32.4023 9.08582C33.3867 9.08582 34.2617 9.24988 35.0273 9.578C35.793 9.90613 36.3945 10.3983 36.832 11.0546C37.2773 11.7108 37.5 12.5311 37.5 13.5155V18.9413C37.5 19.6366 37.543 20.2069 37.6289 20.6522C37.7148 21.0897 37.8398 21.4725 38.0039 21.8007V21.9999H34.5938C34.4297 21.6561 34.3047 21.2264 34.2188 20.7108C34.1406 20.1874 34.1016 19.6639 34.1016 19.1405ZM34.5469 14.2772L34.5703 16.1874H32.6836C32.2383 16.1874 31.8516 16.2382 31.5234 16.3397C31.1953 16.4413 30.9258 16.5858 30.7148 16.7733C30.5039 16.953 30.3477 17.1639 30.2461 17.4061C30.1523 17.6483 30.1055 17.9139 30.1055 18.203C30.1055 18.4921 30.1719 18.7538 30.3047 18.9882C30.4375 19.2147 30.6289 19.3944 30.8789 19.5272C31.1289 19.6522 31.4219 19.7147 31.7578 19.7147C32.2656 19.7147 32.707 19.6132 33.082 19.41C33.457 19.2069 33.7461 18.9569 33.9492 18.66C34.1602 18.3632 34.2695 18.0819 34.2773 17.8163L35.168 19.246C35.043 19.5663 34.8711 19.8983 34.6523 20.2421C34.4414 20.5858 34.1719 20.91 33.8438 21.2147C33.5156 21.5116 33.1211 21.7577 32.6602 21.953C32.1992 22.1405 31.6523 22.2343 31.0195 22.2343C30.2148 22.2343 29.4844 22.0741 28.8281 21.7538C28.1797 21.4257 27.6641 20.9764 27.2812 20.4061C26.9062 19.828 26.7188 19.1718 26.7188 18.4374C26.7188 17.7733 26.8438 17.1835 27.0938 16.6678C27.3438 16.1522 27.7109 15.7186 28.1953 15.3671C28.6875 15.0077 29.3008 14.7382 30.0352 14.5585C30.7695 14.371 31.6211 14.2772 32.5898 14.2772H34.5469ZM43.4766 12.0858V21.9999H40.1016V9.32019H43.2773L43.4766 12.0858ZM47.2969 9.23816L47.2383 12.3671C47.0742 12.3436 46.875 12.3241 46.6406 12.3085C46.4141 12.285 46.207 12.2733 46.0195 12.2733C45.543 12.2733 45.1289 12.3358 44.7773 12.4608C44.4336 12.578 44.1445 12.7538 43.9102 12.9882C43.6836 13.2225 43.5117 13.5077 43.3945 13.8436C43.2852 14.1796 43.2227 14.5624 43.207 14.9921L42.5273 14.7811C42.5273 13.9608 42.6094 13.2069 42.7734 12.5194C42.9375 11.8241 43.1758 11.2186 43.4883 10.703C43.8086 10.1874 44.1992 9.78894 44.6602 9.50769C45.1211 9.22644 45.6484 9.08582 46.2422 9.08582C46.4297 9.08582 46.6211 9.10144 46.8164 9.13269C47.0117 9.15613 47.1719 9.19128 47.2969 9.23816ZM52.1953 12.0272V21.9999H48.8203V9.32019H51.9844L52.1953 12.0272ZM51.7031 15.2147H50.7891C50.7891 14.2772 50.9102 13.4335 51.1523 12.6835C51.3945 11.9257 51.7344 11.2811 52.1719 10.7499C52.6094 10.2108 53.1289 9.80066 53.7305 9.51941C54.3398 9.23035 55.0195 9.08582 55.7695 9.08582C56.3633 9.08582 56.9062 9.17175 57.3984 9.34363C57.8906 9.5155 58.3125 9.78894 58.6641 10.1639C59.0234 10.5389 59.2969 11.035 59.4844 11.6522C59.6797 12.2694 59.7773 13.0233 59.7773 13.9139V21.9999H56.3789V13.9022C56.3789 13.3397 56.3008 12.9022 56.1445 12.5897C55.9883 12.2772 55.7578 12.0585 55.4531 11.9335C55.1562 11.8007 54.7891 11.7343 54.3516 11.7343C53.8984 11.7343 53.5039 11.8241 53.168 12.0038C52.8398 12.1835 52.5664 12.4335 52.3477 12.7538C52.1367 13.0663 51.9766 13.4335 51.8672 13.8553C51.7578 14.2772 51.7031 14.7303 51.7031 15.2147ZM69.1875 19.1405V13.4921C69.1875 13.0858 69.1211 12.7382 68.9883 12.4491C68.8555 12.1522 68.6484 11.9218 68.3672 11.7577C68.0938 11.5936 67.7383 11.5116 67.3008 11.5116C66.9258 11.5116 66.6016 11.578 66.3281 11.7108C66.0547 11.8358 65.8438 12.0194 65.6953 12.2616C65.5469 12.496 65.4727 12.7733 65.4727 13.0936H62.0977C62.0977 12.5546 62.2227 12.0428 62.4727 11.5585C62.7227 11.0741 63.0859 10.6483 63.5625 10.2811C64.0391 9.90613 64.6055 9.61316 65.2617 9.40222C65.9258 9.19128 66.668 9.08582 67.4883 9.08582C68.4727 9.08582 69.3477 9.24988 70.1133 9.578C70.8789 9.90613 71.4805 10.3983 71.918 11.0546C72.3633 11.7108 72.5859 12.5311 72.5859 13.5155V18.9413C72.5859 19.6366 72.6289 20.2069 72.7148 20.6522C72.8008 21.0897 72.9258 21.4725 73.0898 21.8007V21.9999H69.6797C69.5156 21.6561 69.3906 21.2264 69.3047 20.7108C69.2266 20.1874 69.1875 19.6639 69.1875 19.1405ZM69.6328 14.2772L69.6562 16.1874H67.7695C67.3242 16.1874 66.9375 16.2382 66.6094 16.3397C66.2812 16.4413 66.0117 16.5858 65.8008 16.7733C65.5898 16.953 65.4336 17.1639 65.332 17.4061C65.2383 17.6483 65.1914 17.9139 65.1914 18.203C65.1914 18.4921 65.2578 18.7538 65.3906 18.9882C65.5234 19.2147 65.7148 19.3944 65.9648 19.5272C66.2148 19.6522 66.5078 19.7147 66.8438 19.7147C67.3516 19.7147 67.793 19.6132 68.168 19.41C68.543 19.2069 68.832 18.9569 69.0352 18.66C69.2461 18.3632 69.3555 18.0819 69.3633 17.8163L70.2539 19.246C70.1289 19.5663 69.957 19.8983 69.7383 20.2421C69.5273 20.5858 69.2578 20.91 68.9297 21.2147C68.6016 21.5116 68.207 21.7577 67.7461 21.953C67.2852 22.1405 66.7383 22.2343 66.1055 22.2343C65.3008 22.2343 64.5703 22.0741 63.9141 21.7538C63.2656 21.4257 62.75 20.9764 62.3672 20.4061C61.9922 19.828 61.8047 19.1718 61.8047 18.4374C61.8047 17.7733 61.9297 17.1835 62.1797 16.6678C62.4297 16.1522 62.7969 15.7186 63.2812 15.3671C63.7734 15.0077 64.3867 14.7382 65.1211 14.5585C65.8555 14.371 66.707 14.2772 67.6758 14.2772H69.6328ZM75.1875 3.99988H78.5625V19.0936L78.2227 21.9999H75.1875V3.99988ZM86.5898 15.5311V15.7772C86.5898 16.7225 86.4883 17.5897 86.2852 18.3788C86.0898 19.1678 85.7852 19.8514 85.3711 20.4296C84.957 20.9999 84.4414 21.4452 83.8242 21.7655C83.2148 22.078 82.4961 22.2343 81.668 22.2343C80.8945 22.2343 80.2227 22.078 79.6523 21.7655C79.0898 21.453 78.6172 21.0116 78.2344 20.4413C77.8516 19.871 77.543 19.203 77.3086 18.4374C77.0742 17.6718 76.8984 16.8358 76.7812 15.9296V15.3905C76.8984 14.4843 77.0742 13.6483 77.3086 12.8827C77.543 12.1171 77.8516 11.4491 78.2344 10.8788C78.6172 10.3085 79.0898 9.86707 79.6523 9.55457C80.2148 9.24207 80.8789 9.08582 81.6445 9.08582C82.4805 9.08582 83.207 9.24597 83.8242 9.56628C84.4492 9.87878 84.9648 10.3241 85.3711 10.9022C85.7852 11.4725 86.0898 12.1522 86.2852 12.9413C86.4883 13.7225 86.5898 14.5858 86.5898 15.5311ZM83.2148 15.7772V15.5311C83.2148 15.0155 83.1758 14.5311 83.0977 14.078C83.0273 13.6171 82.9023 13.2147 82.7227 12.871C82.543 12.5194 82.2969 12.2421 81.9844 12.0389C81.6797 11.8358 81.2852 11.7343 80.8008 11.7343C80.3398 11.7343 79.9492 11.8124 79.6289 11.9686C79.3086 12.1249 79.043 12.3436 78.832 12.6249C78.6289 12.9061 78.4766 13.2421 78.375 13.6327C78.2734 14.0155 78.2109 14.4374 78.1875 14.8983V16.4335C78.2109 17.0507 78.3125 17.5975 78.4922 18.0741C78.6797 18.5428 78.9609 18.9139 79.3359 19.1874C79.7188 19.453 80.2148 19.5858 80.8242 19.5858C81.3008 19.5858 81.6953 19.4921 82.0078 19.3046C82.3203 19.1171 82.5625 18.8514 82.7344 18.5077C82.9141 18.1639 83.0391 17.7616 83.1094 17.3007C83.1797 16.8319 83.2148 16.3241 83.2148 15.7772ZM92.25 3.99988V21.9999H88.8633V3.99988H92.25ZM100.875 22.2343C99.8906 22.2343 99.0078 22.078 98.2266 21.7655C97.4453 21.4452 96.7812 21.0038 96.2344 20.4413C95.6953 19.8788 95.2812 19.2264 94.9922 18.4843C94.7031 17.7343 94.5586 16.9374 94.5586 16.0936V15.6249C94.5586 14.6639 94.6953 13.785 94.9688 12.9882C95.2422 12.1913 95.6328 11.4999 96.1406 10.9139C96.6562 10.328 97.2812 9.87878 98.0156 9.56628C98.75 9.24597 99.5781 9.08582 100.5 9.08582C101.398 9.08582 102.195 9.23425 102.891 9.53113C103.586 9.828 104.168 10.2499 104.637 10.7968C105.113 11.3436 105.473 11.9999 105.715 12.7655C105.957 13.5233 106.078 14.3671 106.078 15.2968V16.703H96V14.453H102.762V14.1952C102.762 13.7264 102.676 13.3085 102.504 12.9413C102.34 12.5663 102.09 12.2694 101.754 12.0507C101.418 11.8319 100.988 11.7225 100.465 11.7225C100.02 11.7225 99.6367 11.8202 99.3164 12.0155C98.9961 12.2108 98.7344 12.4843 98.5312 12.8358C98.3359 13.1874 98.1875 13.6014 98.0859 14.078C97.9922 14.5468 97.9453 15.0624 97.9453 15.6249V16.0936C97.9453 16.6014 98.0156 17.0702 98.1562 17.4999C98.3047 17.9296 98.5117 18.3007 98.7773 18.6132C99.0508 18.9257 99.3789 19.1678 99.7617 19.3397C100.152 19.5116 100.594 19.5975 101.086 19.5975C101.695 19.5975 102.262 19.4803 102.785 19.246C103.316 19.0038 103.773 18.6405 104.156 18.1561L105.797 19.9374C105.531 20.3202 105.168 20.6874 104.707 21.0389C104.254 21.3905 103.707 21.6796 103.066 21.9061C102.426 22.1249 101.695 22.2343 100.875 22.2343Z" fill="#FFEFBE"/>
<path d="M64.0391 26.9374V43.9999H60.5234V26.9374H64.0391ZM74.2578 26.9374L67.4961 35.3632L63.5938 39.5585L62.9609 36.2303L65.5977 32.621L69.9453 26.9374H74.2578ZM70.2617 43.9999L65.2344 36.1132L67.8359 33.9335L74.4219 43.9999H70.2617ZM79.1328 31.3202V43.9999H75.7461V31.3202H79.1328ZM75.5352 28.0155C75.5352 27.5233 75.707 27.1171 76.0508 26.7968C76.3945 26.4764 76.8555 26.3163 77.4336 26.3163C78.0039 26.3163 78.4609 26.4764 78.8047 26.7968C79.1562 27.1171 79.332 27.5233 79.332 28.0155C79.332 28.5077 79.1562 28.9139 78.8047 29.2343C78.4609 29.5546 78.0039 29.7147 77.4336 29.7147C76.8555 29.7147 76.3945 29.5546 76.0508 29.2343C75.707 28.9139 75.5352 28.5077 75.5352 28.0155ZM89.4102 41.2343V25.9999H92.8086V43.9999H89.75L89.4102 41.2343ZM81.3945 37.8124V37.5663C81.3945 36.5975 81.5039 35.7186 81.7227 34.9296C81.9414 34.1327 82.2617 33.4491 82.6836 32.8788C83.1055 32.3085 83.625 31.8671 84.2422 31.5546C84.8594 31.2421 85.5625 31.0858 86.3516 31.0858C87.0938 31.0858 87.7422 31.2421 88.2969 31.5546C88.8594 31.8671 89.3359 32.3124 89.7266 32.8905C90.125 33.4608 90.4453 34.1366 90.6875 34.9178C90.9297 35.6913 91.1055 36.5389 91.2148 37.4608V37.9999C91.1055 38.8827 90.9297 39.703 90.6875 40.4608C90.4453 41.2186 90.125 41.8827 89.7266 42.453C89.3359 43.0155 88.8594 43.453 88.2969 43.7655C87.7344 44.078 87.0781 44.2343 86.3281 44.2343C85.5391 44.2343 84.8359 44.0741 84.2188 43.7538C83.6094 43.4335 83.0938 42.9843 82.6719 42.4061C82.2578 41.828 81.9414 41.1483 81.7227 40.3671C81.5039 39.5858 81.3945 38.7343 81.3945 37.8124ZM84.7695 37.5663V37.8124C84.7695 38.3358 84.8086 38.8241 84.8867 39.2772C84.9727 39.7303 85.1094 40.1327 85.2969 40.4843C85.4922 40.828 85.7422 41.0975 86.0469 41.2928C86.3594 41.4803 86.7383 41.5741 87.1836 41.5741C87.7617 41.5741 88.2383 41.4452 88.6133 41.1874C88.9883 40.9218 89.2734 40.5585 89.4688 40.0975C89.6719 39.6366 89.7891 39.1053 89.8203 38.5038V36.9686C89.7969 36.4764 89.7266 36.035 89.6094 35.6444C89.5 35.246 89.3359 34.9061 89.1172 34.6249C88.9062 34.3436 88.6406 34.1249 88.3203 33.9686C88.0078 33.8124 87.6367 33.7343 87.207 33.7343C86.7695 33.7343 86.3945 33.8358 86.082 34.0389C85.7695 34.2343 85.5156 34.5038 85.3203 34.8475C85.1328 35.1913 84.9922 35.5975 84.8984 36.0663C84.8125 36.5272 84.7695 37.0272 84.7695 37.5663ZM102.301 40.496C102.301 40.2538 102.23 40.035 102.09 39.8397C101.949 39.6444 101.688 39.4647 101.305 39.3007C100.93 39.1288 100.387 38.9725 99.6758 38.8319C99.0352 38.6913 98.4375 38.5155 97.8828 38.3046C97.3359 38.0858 96.8594 37.8241 96.4531 37.5194C96.0547 37.2147 95.7422 36.8553 95.5156 36.4413C95.2891 36.0194 95.1758 35.5389 95.1758 34.9999C95.1758 34.4686 95.2891 33.9686 95.5156 33.4999C95.75 33.0311 96.082 32.6171 96.5117 32.2577C96.9492 31.8905 97.4805 31.6053 98.1055 31.4022C98.7383 31.1913 99.4492 31.0858 100.238 31.0858C101.34 31.0858 102.285 31.2616 103.074 31.6132C103.871 31.9647 104.48 32.4491 104.902 33.0663C105.332 33.6757 105.547 34.371 105.547 35.1522H102.172C102.172 34.8241 102.102 34.5311 101.961 34.2733C101.828 34.0077 101.617 33.8007 101.328 33.6522C101.047 33.496 100.68 33.4178 100.227 33.4178C99.8516 33.4178 99.5273 33.4843 99.2539 33.6171C98.9805 33.7421 98.7695 33.9139 98.6211 34.1327C98.4805 34.3436 98.4102 34.578 98.4102 34.8358C98.4102 35.0311 98.4492 35.2069 98.5273 35.3632C98.6133 35.5116 98.75 35.6483 98.9375 35.7733C99.125 35.8983 99.3672 36.0155 99.6641 36.1249C99.9688 36.2264 100.344 36.3202 100.789 36.4061C101.703 36.5936 102.52 36.8397 103.238 37.1444C103.957 37.4413 104.527 37.8475 104.949 38.3632C105.371 38.871 105.582 39.5389 105.582 40.3671C105.582 40.9296 105.457 41.4452 105.207 41.9139C104.957 42.3827 104.598 42.7928 104.129 43.1444C103.66 43.4882 103.098 43.7577 102.441 43.953C101.793 44.1405 101.062 44.2343 100.25 44.2343C99.0703 44.2343 98.0703 44.0233 97.25 43.6014C96.4375 43.1796 95.8203 42.6444 95.3984 41.996C94.9844 41.3397 94.7773 40.6678 94.7773 39.9803H97.9766C97.9922 40.4413 98.1094 40.8124 98.3281 41.0936C98.5547 41.3749 98.8398 41.578 99.1836 41.703C99.5352 41.828 99.9141 41.8905 100.32 41.8905C100.758 41.8905 101.121 41.8319 101.41 41.7147C101.699 41.5897 101.918 41.4257 102.066 41.2225C102.223 41.0116 102.301 40.7694 102.301 40.496Z" fill="#FFEFBE"/>
<rect y="31.9999" width="56" height="9" rx="4.5" fill="#FF6A00"/>
</svg>
